<?xml version="1.0" encoding="UTF-8" standalone="no"?>
<!-- Created with Inkscape (http://www.inkscape.org/) -->

<svg
   width="1000"
   height="1500"
   viewBox="0 0 1000 1500"
   version="1.1"
   id="svg1"
   xmlns="http://www.w3.org/2000/svg"
   xmlns:svg="http://www.w3.org/2000/svg">
  <defs
     id="defs1" />
  <g
     id="layer1">
    <rect
       style="display:inline;fill:#ff2a7f;stroke-width:7.74;stroke-linecap:round;stroke-linejoin:round"
       id="rect1"
       width="1000"
       height="1500"
       x="0"
       y="0" />
    <path
       style="display:inline;fill:#ff9955;stroke:#000000;stroke-width:7.74;stroke-linecap:round;stroke-linejoin:round;stroke-opacity:1"
       d="m 367.65108,127.6509 c 68.58257,-47.260282 179.68013,-51.137642 249.79147,-6.17651 180.01701,115.44165 241.22548,375.97819 253.15747,589.49757 8.23544,147.37069 -10.19704,335.28574 -128.30866,423.80464 -124.09835,93.0056 -341.00218,97.2516 -465.22525,4.4126 -129.39657,-96.7054 -141.822,-304.76433 -132.8551,-466.05601 10.90691,-196.18748 61.6447,-433.98902 223.44007,-545.48229 z"
       id="path13" />
    <g
       id="g13"
       style="display:inline"
       transform="translate(-30.244312,-267.39527)">
      <path
         id="rect8"
         style="fill:#800080;stroke:#000000;stroke-width:7.74;stroke-linecap:round;stroke-linejoin:round"
         d="m 570.23273,1538.6027 c 171.5527,-33.3202 238.63787,10.1739 214.11133,121.0296 H 570.23273 Z" />
      <path
         id="rect7"
         style="fill:#800080;stroke:#000000;stroke-width:7.74;stroke-linecap:round;stroke-linejoin:round"
         d="M 509.35355,1535.3424 V 1656.372 H 295.24222 C 251.6894,1527.2245 377.1209,1528.6557 509.35355,1535.3424 Z" />
      <path
         id="rect4-8"
         style="display:inline;fill:#ff2a2a;stroke:#000000;stroke-width:7.74;stroke-linecap:round;stroke-linejoin:round;stroke-opacity:1"
         d="m 570.23242,1140.4473 v 398.1562 c 24.58885,-4.7758 46.9586,-7.9208 67.29297,-9.5683 v -388.5879 z" />
      <path
         id="rect4"
         style="display:inline;fill:#ff2a2a;stroke:#000000;stroke-width:7.74;stroke-linecap:round;stroke-linejoin:round;stroke-opacity:1"
         d="m 442.06055,1140.4473 v 392.5625 c 21.67162,0.1902 44.36728,1.1727 67.29297,2.332 v -394.8945 z" />
      <path
         style="fill:#008080;stroke:#000000;stroke-width:7.74;stroke-linecap:round;stroke-linejoin:round;stroke-opacity:1"
         d="M 435.9128,1005.269 303.13599,1261.1639 775.50698,1287.8602 646.38784,1005.269 Z"
         id="path3" />
    </g>
    <g
       id="g14"
       style="display:inline"
       transform="translate(-30.244312,-267.39527)">
      <ellipse
         style="display:inline;fill:#ffff00;stroke:#000000;stroke-width:7.74;stroke-linecap:round;stroke-linejoin:round;stroke-opacity:1"
         id="ellipse5"
         cx="904.41754"
         cy="857.43433"
         rx="90.669304"
         ry="72.2799" />
      <ellipse
         style="display:inline;fill:#ffff00;stroke:#000000;stroke-width:7.74;stroke-linecap:round;stroke-linejoin:round;stroke-opacity:1"
         id="ellipse13"
         cx="160.21124"
         cy="857.70679"
         rx="88.692001"
         ry="72.007439" />
      <rect
         style="display:inline;fill:#ff00ff;stroke:#000000;stroke-width:7.74003;stroke-linecap:round;stroke-linejoin:round;stroke-opacity:1"
         id="rect29"
         width="263.41211"
         height="100.11687"
         x="574.60565"
         y="808.90521" />
      <rect
         style="display:inline;fill:#ff00ff;stroke:#000000;stroke-width:7.74003;stroke-linecap:round;stroke-linejoin:round;stroke-opacity:1"
         id="rect5"
         width="267.73782"
         height="100.11687"
         x="231.16803"
         y="808.90521" />
      <rect
         style="display:inline;fill:#000080;stroke:#000000;stroke-width:7.74;stroke-linecap:round;stroke-linejoin:round;stroke-opacity:1"
         id="rect3"
         width="207.6337"
         height="196.36375"
         x="436.18317"
         y="808.90527" />
    </g>
    <g
       id="g15"
       style="display:inline"
       transform="translate(-30.244312,-267.39527)">
      <rect
         style="display:inline;fill:#ffff00;stroke:#000000;stroke-width:7.74;stroke-linecap:round;stroke-linejoin:round;stroke-opacity:1"
         id="rect6"
         width="75.699791"
         height="69.972862"
         x="498.90585"
         y="738.93237" />
      <path
         id="path1"
         style="display:inline;fill:#ffff00;stroke:#000000;stroke-width:7.74;stroke-linecap:round;stroke-linejoin:round"
         d="m 614.16173,478.49055 c 0,0 60.68702,142.93814 58.42593,159.11369 C 661.68087,715.63002 635.57286,773.9188 531.34857,777.86371 421.726,782.01294 383.11315,650.644 393.26166,633.78076 l 32.69482,-110.73131 z" />
      <ellipse
         style="display:inline;fill:#d40000;stroke:#000000;stroke-width:7.74;stroke-linecap:round;stroke-linejoin:round;stroke-opacity:1"
         id="path11"
         cx="533.27844"
         cy="734.00092"
         rx="26.472429"
         ry="21.572351" />
      <path
         style="display:inline;fill:none;stroke:#000000;stroke-width:7.74;stroke-linecap:round;stroke-linejoin:round;stroke-opacity:1"
         d="m 487.05611,729.00605 c 27.42318,6.79934 58.90435,8.86437 94.97818,5.57129"
         id="path10" />
      <ellipse
         style="fill:#ff9955;stroke:#000000;stroke-width:7.74;stroke-linecap:round;stroke-linejoin:round;stroke-opacity:1"
         id="path21"
         cx="533.62988"
         cy="683.43732"
         rx="14.528983"
         ry="13.764299" />
      <ellipse
         style="display:inline;fill:#ffffff;stroke:#000000;stroke-width:7.74;stroke-linecap:round;stroke-linejoin:round;stroke-opacity:1"
         id="ellipse26"
         cx="-598.5448"
         cy="638.75122"
         rx="39.486835"
         ry="39.381191"
         transform="scale(-1,1)" />
      <ellipse
         style="display:inline;fill:#ffffff;stroke:#000000;stroke-width:7.74;stroke-linecap:round;stroke-linejoin:round;stroke-opacity:1"
         id="path8"
         cx="469.31329"
         cy="638.75122"
         rx="39.486835"
         ry="39.381191" />
      <ellipse
         style="display:inline;fill:#00ffff;stroke:#000000;stroke-width:7.74;stroke-linecap:round;stroke-linejoin:round;stroke-opacity:1"
         id="ellipse27"
         cx="-598.52716"
         cy="636.89569"
         rx="23.956326"
         ry="22.96767"
         transform="scale(-1,1)" />
      <ellipse
         style="fill:#00ffff;stroke:#000000;stroke-width:7.74;stroke-linecap:round;stroke-linejoin:round;stroke-opacity:1"
         id="path17"
         cx="468.79022"
         cy="637.16608"
         rx="25.03775"
         ry="23.77874" />
      <ellipse
         style="display:inline;fill:#000000;stroke:none;stroke-width:7.74001;stroke-linecap:round;stroke-linejoin:round;stroke-opacity:1"
         id="ellipse29"
         cx="598.04382"
         cy="637.7724"
         rx="10.89509"
         ry="9.948842" />
      <ellipse
         style="display:inline;fill:#000000;stroke:none;stroke-width:7.74001;stroke-linecap:round;stroke-linejoin:round;stroke-opacity:1"
         id="path28"
         cx="468.54309"
         cy="636.96136"
         rx="11.165445"
         ry="9.6784859" />
      <path
         style="display:inline;fill:#000000;stroke:none;stroke-width:7.74;stroke-linecap:round;stroke-linejoin:round;stroke-opacity:1"
         d="m 638.83141,644.76647 -77.61536,-15.57025 15.35705,-24.06312 18.26243,-4.71827 23.24311,1.88731 17.01728,22.17582 z"
         id="path27" />
      <path
         style="display:inline;fill:#000000;stroke:none;stroke-width:7.74;stroke-linecap:round;stroke-linejoin:round;stroke-opacity:1"
         d="m 429.02666,644.76647 77.61536,-15.57025 -15.35705,-24.06312 -18.26243,-4.71827 -23.24311,1.88731 -17.01728,22.17582 z"
         id="path22" />
      <ellipse
         style="display:inline;fill:#ffffff;stroke:none;stroke-width:7.74;stroke-linecap:round;stroke-linejoin:round;stroke-opacity:1"
         id="ellipse28"
         cx="-616.93781"
         cy="620.87433"
         rx="10.273542"
         ry="9.4624729"
         transform="scale(-1,1)" />
      <ellipse
         style="display:inline;fill:#ffffff;stroke:none;stroke-width:7.74;stroke-linecap:round;stroke-linejoin:round;stroke-opacity:1"
         id="path24"
         cx="480.74289"
         cy="616.28625"
         rx="10.273542"
         ry="9.4624729" />
      <path
         style="display:inline;fill:none;stroke:#000000;stroke-width:7.74;stroke-linecap:round;stroke-linejoin:round;stroke-opacity:1"
         d="m 538.58847,301.63523 c 31.65914,-2.24062 54.03911,3.95437 69.84803,16.12304"
         id="path20"
         transform="translate(30.244312,267.39527)" />
      <path
         style="display:inline;fill:none;stroke:#000000;stroke-width:7.74;stroke-linecap:round;stroke-linejoin:round;stroke-opacity:1"
         d="m 474.04131,306.99134 c -39.40224,-9.25944 -56.41423,1.07259 -73.2849,11.52827"
         id="path19"
         transform="translate(30.244312,267.39527)" />
    </g>
  </g>
</svg>
